<svg width="657.9px" height="120.8px" xmlns="http://www.w3.org/2000/svg" viewBox="-78.9375 14.600000000000001 657.875 120.8" style="background: rgba(0, 0, 0, 0)" preserveAspectRatio="xMidYMid"><defs><linearGradient id="editing-gradient-gradient" x1="0" x2="1" y1="0.5" y2="0.5" gradientUnits="objectBoundingBox"><stop offset="0" stop-color="#ff00ff"></stop><stop offset="1" stop-color="#00ffff"></stop></linearGradient></defs><g><g transform="matrix(1.2,0,0,1.6,-36.7,182.7)"><path d="M 12.4 -54 L -1.5 -54 L 6.6 -96.2 L 20.7 -96.2 L 12.4 -54 Z M 68.2 -52.7 L 68.2 -52.7 L 68.2 -52.7 Q 60.4 -52.7 60.4 -58.7 L 60.4 -58.7 L 60.4 -58.7 Q 60.4 -61.4 61.5 -66.5 L 61.5 -66.5 L 61.5 -66.5 Q 62.7 -71.5 63 -73.6 L 63 -73.6 L 63 -73.6 Q 63.9 -78.3 63.9 -79.7 L 63.9 -79.7 L 63.9 -79.7 Q 63.9 -83 61.5 -83 L 61.5 -83 L 61.5 -83 Q 59.9 -83 58.4 -80.8 L 58.4 -80.8 L 58.4 -80.8 Q 56.8 -78.6 56.1 -74.2 L 56.1 -74.2 L 52.2 -54 L 39.7 -52.7 L 43.1 -70.1 L 43.1 -70.1 Q 43.7 -73 44.2 -76.3 L 44.2 -76.3 L 44.2 -76.3 Q 44.7 -79.5 44.7 -80.1 L 44.7 -80.1 L 44.7 -80.1 Q 44.7 -83 42.6 -83 L 42.6 -83 L 42.6 -83 Q 41.1 -83 39.5 -80.8 L 39.5 -80.8 L 39.5 -80.8 Q 37.9 -78.6 37 -74.2 L 37 -74.2 L 33.1 -54 L 20.5 -52.7 L 27.2 -86.6 L 37.6 -87.9 L 36.5 -81.5 L 36.5 -81.5 Q 38.2 -84.9 41.3 -86.4 L 41.3 -86.4 L 41.3 -86.4 Q 44.3 -87.9 49.1 -87.9 L 49.1 -87.9 L 49.1 -87.9 Q 51.9 -87.9 53.7 -86.6 L 53.7 -86.6 L 53.7 -86.6 Q 55.5 -85.2 56.1 -83.1 L 56.1 -83.1 L 56.1 -83.1 Q 57.1 -85.3 59.9 -86.6 L 59.9 -86.6 L 59.9 -86.6 Q 62.7 -87.9 66.1 -87.9 L 66.1 -87.9 L 66.1 -87.9 Q 69.6 -87.9 71.3 -87.2 L 71.3 -87.2 L 71.3 -87.2 Q 73 -86.5 74 -85.2 L 74 -85.2 L 74 -85.2 Q 75.7 -83 75.7 -78.9 L 75.7 -78.9 L 75.7 -78.9 Q 75.7 -74.9 74 -66.5 L 74 -66.5 L 74 -66.5 Q 73.1 -62.4 73.1 -60.9 L 73.1 -60.9 L 73.1 -60.9 Q 73.1 -59.4 73.9 -58.5 L 73.9 -58.5 L 73.9 -58.5 Q 74.8 -57.6 76.1 -57.5 L 76.1 -57.5 L 76.1 -57.5 Q 75.5 -55.3 73.2 -54 L 73.2 -54 L 73.2 -54 Q 71 -52.7 68.2 -52.7 Z M 83.8 -55.9 L 83.8 -55.9 L 83.8 -55.9 Q 82.3 -57.6 81.6 -60.2 L 81.6 -60.2 L 81.6 -60.2 Q 81 -62.8 81 -67.1 L 81 -67.1 L 81 -67.1 Q 81 -71.4 82.4 -75.3 L 82.4 -75.3 L 82.4 -75.3 Q 83.9 -79.2 86.6 -82 L 86.6 -82 L 86.6 -82 Q 92.1 -87.9 101.2 -87.9 L 101.2 -87.9 L 101.2 -87.9 Q 104.4 -87.9 106.8 -86.8 L 106.8 -86.8 L 117.8 -87.9 L 113 -63 L 113 -63 Q 112.8 -62.2 112.8 -60.8 L 112.8 -60.8 L 112.8 -60.8 Q 112.8 -59.4 113.7 -58.5 L 113.7 -58.5 L 113.7 -58.5 Q 114.6 -57.6 115.8 -57.5 L 115.8 -57.5 L 115.8 -57.5 Q 115.2 -55.3 112.9 -54 L 112.9 -54 L 112.9 -54 Q 110.5 -52.7 107.9 -52.7 L 107.9 -52.7 L 107.9 -52.7 Q 105.3 -52.7 103.5 -53.7 L 103.5 -53.7 L 103.5 -53.7 Q 101.8 -54.7 101.2 -56.4 L 101.2 -56.4 L 101.2 -56.4 Q 100.2 -54.8 98 -53.7 L 98 -53.7 L 98 -53.7 Q 95.9 -52.7 93 -52.7 L 93 -52.7 L 93 -52.7 Q 90 -52.7 87.7 -53.5 L 87.7 -53.5 L 87.7 -53.5 Q 85.3 -54.3 83.8 -55.9 Z M 97.3 -81.9 L 97.3 -81.9 L 97.3 -81.9 Q 96.6 -80.8 95.9 -78.8 L 95.9 -78.8 L 95.9 -78.8 Q 95.3 -76.9 94.2 -71.6 L 94.2 -71.6 L 94.2 -71.6 Q 93.2 -66.4 93.2 -62.7 L 93.2 -62.7 L 93.2 -62.7 Q 93.2 -59 93.8 -57.9 L 93.8 -57.9 L 93.8 -57.9 Q 94.3 -56.8 95.4 -56.8 L 95.4 -56.8 L 95.4 -56.8 Q 97.4 -56.8 98.9 -58.8 L 98.9 -58.8 L 98.9 -58.8 Q 100.4 -60.7 101 -64.2 L 101 -64.2 L 104.4 -82.9 L 104.4 -82.9 Q 103 -84.1 101.5 -84.1 L 101.5 -84.1 L 101.5 -84.1 Q 99.9 -84.1 99 -83.6 L 99 -83.6 L 99 -83.6 Q 98 -83.1 97.3 -81.9 Z M 125.5 -80.8 L 125.5 -80.8 L 125.5 -80.8 Q 127.7 -83.8 131 -85.9 L 131 -85.9 L 131 -85.9 Q 134.3 -87.9 138.3 -87.9 L 138.3 -87.9 L 138.3 -87.9 Q 142.3 -87.9 144.3 -86.6 L 144.3 -86.6 L 156.8 -87.9 L 152.4 -63.3 L 152.4 -63.3 Q 150.2 -50.8 145.5 -45.9 L 145.5 -45.9 L 145.5 -45.9 Q 140.9 -41.2 132.1 -41.2 L 132.1 -41.2 L 132.1 -41.2 Q 125.4 -41.2 121.5 -43.3 L 121.5 -43.3 L 121.5 -43.3 Q 117.7 -45.4 117.7 -48.9 L 117.7 -48.9 L 117.7 -48.9 Q 117.7 -51.6 119.7 -53.1 L 119.7 -53.1 L 119.7 -53.1 Q 121.7 -54.6 124.7 -54.6 L 124.7 -54.6 L 124.7 -54.6 Q 127.4 -54.6 129.5 -53.4 L 129.5 -53.4 L 129.5 -53.4 Q 130.7 -52.7 131.3 -51.8 L 131.3 -51.8 L 131.3 -51.8 Q 129.8 -50.5 129.8 -48.4 L 129.8 -48.4 L 129.8 -48.4 Q 129.8 -45.7 132.3 -45.7 L 132.3 -45.7 L 132.3 -45.7 Q 136.6 -45.7 139.1 -55.8 L 139.1 -55.8 L 139.1 -55.8 Q 139.8 -58.5 140.3 -61.3 L 140.3 -61.3 L 140.3 -61.3 Q 137.5 -57.8 130.9 -57.8 L 130.9 -57.8 L 130.9 -57.8 Q 126.4 -57.8 123.8 -60 L 123.8 -60 L 123.8 -60 Q 121.1 -62.1 121.1 -67.3 L 121.1 -67.3 L 121.1 -67.3 Q 121.1 -70.5 122.2 -74.1 L 122.2 -74.1 L 122.2 -74.1 Q 123.3 -77.7 125.5 -80.8 Z M 133.8 -67.1 L 133.8 -67.1 L 133.8 -67.1 Q 133.8 -62.7 136.1 -62.7 L 136.1 -62.7 L 136.1 -62.7 Q 137.6 -62.7 139.1 -64.4 L 139.1 -64.4 L 139.1 -64.4 Q 140.2 -65.7 140.7 -67.7 L 140.7 -67.7 L 143.9 -84.1 L 143.9 -84.1 Q 143.6 -84.2 143.3 -84.3 L 143.3 -84.3 L 143.3 -84.3 Q 142.7 -84.6 141.8 -84.6 L 141.8 -84.6 L 141.8 -84.6 Q 137.9 -84.6 135.6 -78.2 L 135.6 -78.2 L 135.6 -78.2 Q 133.8 -73.2 133.8 -67.1 Z M 185.2 -64.8 L 185.2 -64.8 L 185.2 -64.8 Q 186.8 -63.7 186.8 -61.3 L 186.8 -61.3 L 186.8 -61.3 Q 186.8 -58.9 185.6 -57.4 L 185.6 -57.4 L 185.6 -57.4 Q 184.4 -55.9 182.4 -54.8 L 182.4 -54.8 L 182.4 -54.8 Q 178.3 -52.7 173.9 -52.7 L 173.9 -52.7 L 173.9 -52.7 Q 169.5 -52.7 166.9 -53.7 L 166.9 -53.7 L 166.9 -53.7 Q 164.3 -54.6 162.6 -56.4 L 162.6 -56.4 L 162.6 -56.4 Q 159.2 -59.8 159.2 -66 L 159.2 -66 L 159.2 -66 Q 159.2 -75.7 164.4 -81.6 L 164.4 -81.6 L 164.4 -81.6 Q 170 -87.9 179.8 -87.9 L 179.8 -87.9 L 179.8 -87.9 Q 185.9 -87.9 188.9 -85.4 L 188.9 -85.4 L 188.9 -85.4 Q 191.2 -83.4 191.2 -80.3 L 191.2 -80.3 L 191.2 -80.3 Q 191.2 -69 171.7 -69 L 171.7 -69 L 171.7 -69 Q 171.5 -67.4 171.5 -66 L 171.5 -66 L 171.5 -66 Q 171.5 -63 172.8 -61.9 L 172.8 -61.9 L 172.8 -61.9 Q 174.1 -60.8 176.5 -60.8 L 176.5 -60.8 L 176.5 -60.8 Q 178.9 -60.8 181.5 -61.9 L 181.5 -61.9 L 181.5 -61.9 Q 184.1 -63 185.2 -64.8 Z M 172.2 -71.8 L 172.2 -71.8 L 172.2 -71.8 Q 176.7 -71.8 179.3 -74.6 L 179.3 -74.6 L 179.3 -74.6 Q 181.9 -77.3 181.9 -81.6 L 181.9 -81.6 L 181.9 -81.6 Q 181.9 -83.1 181.4 -83.9 L 181.4 -83.9 L 181.4 -83.9 Q 180.9 -84.7 179.8 -84.7 L 179.8 -84.7 L 179.8 -84.7 Q 178.7 -84.7 177.8 -84.2 L 177.8 -84.2 L 177.8 -84.2 Q 176.8 -83.8 175.9 -82.4 L 175.9 -82.4 L 175.9 -82.4 Q 173.5 -79.2 172.2 -71.8 Z M 212.5 -76.5 L 212.5 -76.5 L 212.5 -76.5 Q 213.4 -78.8 213.4 -80.9 L 213.4 -80.9 L 213.4 -80.9 Q 213.4 -84.7 210.3 -84.7 L 210.3 -84.7 L 210.3 -84.7 Q 208.7 -84.7 207.4 -83.2 L 207.4 -83.2 L 207.4 -83.2 Q 206.1 -81.8 206.1 -80 L 206.1 -80 L 206.1 -80 Q 206.1 -78.7 207.1 -77.7 L 207.1 -77.7 L 207.1 -77.7 Q 208.6 -76.3 212.3 -74 L 212.3 -74 L 212.3 -74 Q 216.1 -71.7 217.6 -69.8 L 217.6 -69.8 L 217.6 -69.8 Q 219 -67.9 219 -65.3 L 219 -65.3 L 219 -65.3 Q 219 -62.7 217.8 -60.3 L 217.8 -60.3 L 217.8 -60.3 Q 216.5 -58 214.3 -56.3 L 214.3 -56.3 L 214.3 -56.3 Q 209.5 -52.7 201.8 -52.7 L 201.8 -52.7 L 201.8 -52.7 Q 197.6 -52.7 194.4 -54.9 L 194.4 -54.9 L 194.4 -54.9 Q 191.2 -57 191.2 -59.5 L 191.2 -59.5 L 191.2 -59.5 Q 191.2 -62 193.1 -63.5 L 193.1 -63.5 L 193.1 -63.5 Q 194.9 -64.9 197.6 -64.9 L 197.6 -64.9 L 197.6 -64.9 Q 200.3 -64.9 201.9 -63.9 L 201.9 -63.9 L 201.9 -63.9 Q 201.1 -61.8 201.1 -60.4 L 201.1 -60.4 L 201.1 -60.4 Q 201.1 -56.2 204.7 -56.2 L 204.7 -56.2 L 204.7 -56.2 Q 206.2 -56.2 207.2 -57.1 L 207.2 -57.1 L 207.2 -57.1 Q 208.3 -58.1 208.3 -59.8 L 208.3 -59.8 L 208.3 -59.8 Q 208.3 -63 202.7 -66.5 L 202.7 -66.5 L 202.7 -66.5 Q 198.3 -69.4 197.2 -70.6 L 197.2 -70.6 L 197.2 -70.6 Q 195.5 -72.6 195.5 -75.2 L 195.5 -75.2 L 195.5 -75.2 Q 195.5 -77.7 196.7 -80.2 L 196.7 -80.2 L 196.7 -80.2 Q 197.9 -82.6 200.2 -84.3 L 200.2 -84.3 L 200.2 -84.3 Q 204.9 -87.9 213 -87.9 L 213 -87.9 L 213 -87.9 Q 217.1 -87.9 219.6 -86.3 L 219.6 -86.3 L 219.6 -86.3 Q 222.1 -84.6 222.1 -81.8 L 222.1 -81.8 L 222.1 -81.8 Q 222.1 -79 220.4 -77.4 L 220.4 -77.4 L 220.4 -77.4 Q 218.7 -75.8 215.6 -75.8 L 215.6 -75.8 L 215.6 -75.8 Q 213.5 -75.8 212.5 -76.5 Z M 263.5 -74.6 L 276.5 -75.8 L 276.5 -75.8 Q 271.9 -65.7 271.9 -53.9 L 271.9 -53.9 L 271.9 -53.9 Q 270.1 -52.7 267.6 -52.7 L 267.6 -52.7 L 267.6 -52.7 Q 265.1 -52.7 263.5 -53.9 L 263.5 -53.9 L 263.5 -53.9 Q 261.9 -55.1 261.6 -56.3 L 261.6 -56.3 L 261.6 -56.3 Q 260 -54.6 257.4 -53.7 L 257.4 -53.7 L 257.4 -53.7 Q 254.8 -52.7 252 -52.7 L 252 -52.7 L 252 -52.7 Q 249.3 -52.7 246.9 -53.6 L 246.9 -53.6 L 246.9 -53.6 Q 244.5 -54.5 242.6 -56.5 L 242.6 -56.5 L 242.6 -56.5 Q 238.5 -60.9 238.5 -69.1 L 238.5 -69.1 L 238.5 -69.1 Q 238.5 -81.9 245.4 -89.6 L 245.4 -89.6 L 245.4 -89.6 Q 252.4 -97.5 264.9 -97.5 L 264.9 -97.5 L 264.9 -97.5 Q 273.5 -97.5 276.6 -93 L 276.6 -93 L 276.6 -93 Q 277.6 -91.6 277.6 -89.9 L 277.6 -89.9 L 277.6 -89.9 Q 277.6 -88.2 276.8 -86.8 L 276.8 -86.8 L 276.8 -86.8 Q 276.1 -85.4 274.9 -84.2 L 274.9 -84.2 L 274.9 -84.2 Q 272.2 -81.7 268.8 -81.7 L 268.8 -81.7 L 268.8 -81.7 Q 267.5 -81.7 266.2 -82.1 L 266.2 -82.1 L 266.2 -82.1 Q 266.4 -84 266.4 -86.3 L 266.4 -86.3 L 266.4 -86.3 Q 266.4 -88.5 266.3 -89.5 L 266.3 -89.5 L 266.3 -89.5 Q 266.1 -90.5 265.7 -91.4 L 265.7 -91.4 L 265.7 -91.4 Q 264.9 -93.1 263.1 -93.1 L 263.1 -93.1 L 263.1 -93.1 Q 261.2 -93.1 259.2 -91.2 L 259.2 -91.2 L 259.2 -91.2 Q 257.2 -89.2 255.6 -86 L 255.6 -86 L 255.6 -86 Q 252.1 -78.8 252.1 -70.2 L 252.1 -70.2 L 252.1 -70.2 Q 252.1 -66.2 253.6 -63.4 L 253.6 -63.4 L 253.6 -63.4 Q 255.3 -60.3 258.2 -60.3 L 258.2 -60.3 L 258.2 -60.3 Q 259.3 -60.3 260.2 -60.9 L 260.2 -60.9 L 260.2 -60.9 Q 261.1 -61.4 261.5 -61.7 L 261.5 -61.7 L 263.5 -74.6 Z M 282.4 -55.9 L 282.4 -55.9 L 282.4 -55.9 Q 280.9 -57.6 280.2 -60.2 L 280.2 -60.2 L 280.2 -60.2 Q 279.5 -62.8 279.5 -67.1 L 279.5 -67.1 L 279.5 -67.1 Q 279.5 -71.4 281 -75.3 L 281 -75.3 L 281 -75.3 Q 282.5 -79.2 285.2 -82 L 285.2 -82 L 285.2 -82 Q 290.7 -87.9 299.8 -87.9 L 299.8 -87.9 L 299.8 -87.9 Q 303 -87.9 305.4 -86.8 L 305.4 -86.8 L 316.3 -87.9 L 311.6 -63 L 311.6 -63 Q 311.4 -62.2 311.4 -60.8 L 311.4 -60.8 L 311.4 -60.8 Q 311.4 -59.4 312.3 -58.5 L 312.3 -58.5 L 312.3 -58.5 Q 313.1 -57.6 314.4 -57.5 L 314.4 -57.5 L 314.4 -57.5 Q 313.8 -55.3 311.5 -54 L 311.5 -54 L 311.5 -54 Q 309.1 -52.7 306.5 -52.7 L 306.5 -52.7 L 306.5 -52.7 Q 303.9 -52.7 302.1 -53.7 L 302.1 -53.7 L 302.1 -53.7 Q 300.3 -54.7 299.8 -56.4 L 299.8 -56.4 L 299.8 -56.4 Q 298.8 -54.8 296.6 -53.7 L 296.6 -53.7 L 296.6 -53.7 Q 294.5 -52.7 291.5 -52.7 L 291.5 -52.7 L 291.5 -52.7 Q 288.6 -52.7 286.3 -53.5 L 286.3 -53.5 L 286.3 -53.5 Q 283.9 -54.3 282.4 -55.9 Z M 295.9 -81.9 L 295.9 -81.9 L 295.9 -81.9 Q 295.2 -80.8 294.5 -78.8 L 294.5 -78.8 L 294.5 -78.8 Q 293.9 -76.9 292.8 -71.6 L 292.8 -71.6 L 292.8 -71.6 Q 291.8 -66.4 291.8 -62.7 L 291.8 -62.7 L 291.8 -62.7 Q 291.8 -59 292.3 -57.9 L 292.3 -57.9 L 292.3 -57.9 Q 292.9 -56.8 293.9 -56.8 L 293.9 -56.8 L 293.9 -56.8 Q 296 -56.8 297.5 -58.8 L 297.5 -58.8 L 297.5 -58.8 Q 299 -60.7 299.6 -64.2 L 299.6 -64.2 L 303 -82.9 L 303 -82.9 Q 301.6 -84.1 300.1 -84.1 L 300.1 -84.1 L 300.1 -84.1 Q 298.5 -84.1 297.6 -83.6 L 297.6 -83.6 L 297.6 -83.6 Q 296.6 -83.1 295.9 -81.9 Z M 335.1 -57.5 L 335.1 -57.5 L 335.1 -57.5 Q 333.1 -52.7 326.8 -52.7 L 326.8 -52.7 L 326.8 -52.7 Q 323.6 -52.7 321.5 -55 L 321.5 -55 L 321.5 -55 Q 319.9 -56.8 319.9 -58.9 L 319.9 -58.9 L 319.9 -58.9 Q 319.9 -63.7 322.1 -74.2 L 322.1 -74.2 L 326.8 -98.8 L 339.8 -100.1 L 333.6 -67.7 L 333.6 -67.7 Q 332.5 -63 332.5 -61.3 L 332.5 -61.3 L 332.5 -61.3 Q 332.5 -57.7 335.1 -57.5 Z M 355.8 -57.5 L 355.8 -57.5 L 355.8 -57.5 Q 353.9 -52.7 347.5 -52.7 L 347.5 -52.7 L 347.5 -52.7 Q 344.3 -52.7 342.3 -55 L 342.3 -55 L 342.3 -55 Q 340.6 -56.8 340.6 -58.9 L 340.6 -58.9 L 340.6 -58.9 Q 340.6 -63.7 342.8 -74.2 L 342.8 -74.2 L 347.5 -98.8 L 360.5 -100.1 L 354.3 -67.7 L 354.3 -67.7 Q 353.2 -63 353.2 -61.3 L 353.2 -61.3 L 353.2 -61.3 Q 353.2 -57.7 355.8 -57.5 Z M 387.2 -64.8 L 387.2 -64.8 L 387.2 -64.8 Q 388.8 -63.7 388.8 -61.3 L 388.8 -61.3 L 388.8 -61.3 Q 388.8 -58.9 387.6 -57.4 L 387.6 -57.4 L 387.6 -57.4 Q 386.4 -55.9 384.4 -54.8 L 384.4 -54.8 L 384.4 -54.8 Q 380.3 -52.7 375.9 -52.7 L 375.9 -52.7 L 375.9 -52.7 Q 371.5 -52.7 368.9 -53.7 L 368.9 -53.7 L 368.9 -53.7 Q 366.3 -54.6 364.5 -56.4 L 364.5 -56.4 L 364.5 -56.4 Q 361.1 -59.8 361.1 -66 L 361.1 -66 L 361.1 -66 Q 361.1 -75.7 366.4 -81.6 L 366.4 -81.6 L 366.4 -81.6 Q 372 -87.9 381.8 -87.9 L 381.8 -87.9 L 381.8 -87.9 Q 387.9 -87.9 390.9 -85.4 L 390.9 -85.4 L 390.9 -85.4 Q 393.1 -83.4 393.1 -80.3 L 393.1 -80.3 L 393.1 -80.3 Q 393.1 -69 373.7 -69 L 373.7 -69 L 373.7 -69 Q 373.4 -67.4 373.4 -66 L 373.4 -66 L 373.4 -66 Q 373.4 -63 374.7 -61.9 L 374.7 -61.9 L 374.7 -61.9 Q 376.1 -60.8 378.5 -60.8 L 378.5 -60.8 L 378.5 -60.8 Q 380.9 -60.8 383.5 -61.9 L 383.5 -61.9 L 383.5 -61.9 Q 386.1 -63 387.2 -64.8 Z M 374.1 -71.8 L 374.1 -71.8 L 374.1 -71.8 Q 378.7 -71.8 381.3 -74.6 L 381.3 -74.6 L 381.3 -74.6 Q 383.9 -77.3 383.9 -81.6 L 383.9 -81.6 L 383.9 -81.6 Q 383.9 -83.1 383.4 -83.9 L 383.4 -83.9 L 383.4 -83.9 Q 382.8 -84.7 381.8 -84.7 L 381.8 -84.7 L 381.8 -84.7 Q 380.7 -84.7 379.7 -84.2 L 379.7 -84.2 L 379.7 -84.2 Q 378.8 -83.8 377.9 -82.4 L 377.9 -82.4 L 377.9 -82.4 Q 375.5 -79.2 374.1 -71.8 Z M 415.4 -72 L 415.4 -72 L 415.4 -72 Q 417.7 -76.1 417.7 -80.2 L 417.7 -80.2 L 417.7 -80.2 Q 417.7 -83 415.7 -83 L 415.7 -83 L 415.7 -83 Q 414.1 -83 412.5 -80.4 L 412.5 -80.4 L 412.5 -80.4 Q 410.9 -77.7 410.4 -74.4 L 410.4 -74.4 L 407 -54 L 393.8 -52.7 L 400.3 -86.6 L 410.9 -87.9 L 409.7 -81.5 L 409.7 -81.5 Q 412.9 -87.9 419.9 -87.9 L 419.9 -87.9 L 419.9 -87.9 Q 423.6 -87.9 425.6 -86 L 425.6 -86 L 425.6 -86 Q 427.6 -84.1 427.6 -80.1 L 427.6 -80.1 L 427.6 -80.1 Q 427.6 -76.2 425.1 -73.7 L 425.1 -73.7 L 425.1 -73.7 Q 422.5 -71.2 418 -71.2 L 418 -71.2 L 418 -71.2 Q 416.1 -71.2 415.4 -72 Z M 449 -61.2 L 449 -61.2 L 449 -61.2 Q 445.7 -57.8 439.6 -57.8 L 439.6 -57.8 L 439.6 -57.8 Q 432 -57.8 430.4 -63.3 L 430.4 -63.3 L 430.4 -63.3 Q 429.9 -65 429.9 -66.9 L 429.9 -66.9 L 429.9 -66.9 Q 429.9 -68.7 430.3 -70.6 L 430.3 -70.6 L 433.3 -86.6 L 446.3 -87.9 L 442.7 -69.3 L 442.7 -69.3 Q 442.6 -68.5 442.4 -67.6 L 442.4 -67.6 L 442.4 -67.6 Q 442.2 -66.7 442.2 -65.7 L 442.2 -65.7 L 442.2 -65.7 Q 442.2 -64.8 442.6 -64.2 L 442.6 -64.2 L 442.6 -64.2 Q 442.9 -63.6 443.3 -63.2 L 443.3 -63.2 L 443.3 -63.2 Q 444.1 -62.7 445.5 -62.7 L 445.5 -62.7 L 445.5 -62.7 Q 446.8 -62.7 448 -64.4 L 448 -64.4 L 448 -64.4 Q 449.2 -66 449.8 -68.9 L 449.8 -68.9 L 453.3 -86.6 L 465.9 -87.9 L 461.1 -62.8 L 461.1 -62.8 Q 458.7 -50.5 453.9 -45.6 L 453.9 -45.6 L 453.9 -45.6 Q 451.4 -43.1 448.2 -42.1 L 448.2 -42.1 L 448.2 -42.1 Q 444.9 -41.1 440.8 -41.1 L 440.8 -41.1 L 440.8 -41.1 Q 434 -41.1 430.2 -43.3 L 430.2 -43.3 L 430.2 -43.3 Q 426.4 -45.4 426.4 -48.9 L 426.4 -48.9 L 426.4 -48.9 Q 426.4 -51.5 428.3 -53 L 428.3 -53 L 428.3 -53 Q 430.3 -54.5 433.4 -54.5 L 433.4 -54.5 L 433.4 -54.5 Q 436.1 -54.5 438.1 -53.4 L 438.1 -53.4 L 438.1 -53.4 Q 439.4 -52.7 439.9 -51.8 L 439.9 -51.8 L 439.9 -51.8 Q 438.5 -50.5 438.5 -48.4 L 438.5 -48.4 L 438.5 -48.4 Q 438.5 -45.6 441 -45.6 L 441 -45.6 L 441 -45.6 Q 445.2 -45.6 447.7 -55.3 L 447.7 -55.3 L 447.7 -55.3 Q 448.4 -58.2 449 -61.2 Z" fill="url(#editing-gradient-gradient)"></path></g></g><style>text {
  font-size: 64px;
  font-family: Arial Black;
  dominant-baseline: central;
  text-anchor: middle;
}</style></svg>